<?xml version="1.0" encoding="UTF-8" standalone="no"?>
<!-- Created with Inkscape (http://www.inkscape.org/) -->

<svg
   width="240mm"
   height="120mm"
   viewBox="0 0 240 120"
   version="1.1"
   id="svg8"
   inkscape:version="1.2.2 (b0a8486541, 2022-12-01)"
   sodipodi:docname="pc20_3sum_to_convolution.svg"
   inkscape:export-filename="pc20_3sum_to_convolution.pdf"
   inkscape:export-xdpi="96"
   inkscape:export-ydpi="96"
   xmlns:inkscape="http://www.inkscape.org/namespaces/inkscape"
   xmlns:sodipodi="http://sodipodi.sourceforge.net/DTD/sodipodi-0.dtd"
   xmlns="http://www.w3.org/2000/svg"
   xmlns:svg="http://www.w3.org/2000/svg"
   xmlns:rdf="http://www.w3.org/1999/02/22-rdf-syntax-ns#"
   xmlns:cc="http://creativecommons.org/ns#"
   xmlns:dc="http://purl.org/dc/elements/1.1/"
   xmlns:ns3="http://www.iki.fi/pav/software/textext/">
  <defs
     id="defs2" />
  <sodipodi:namedview
     id="base"
     pagecolor="#ffffff"
     bordercolor="#666666"
     borderopacity="1.0"
     inkscape:pageopacity="0.0"
     inkscape:pageshadow="2"
     inkscape:zoom="1.5373274"
     inkscape:cx="437.44748"
     inkscape:cy="268.64804"
     inkscape:document-units="mm"
     inkscape:current-layer="g10517"
     showgrid="false"
     showborder="true"
     width="200mm"
     showguides="true"
     inkscape:guide-bbox="true"
     inkscape:window-width="2560"
     inkscape:window-height="1317"
     inkscape:window-x="0"
     inkscape:window-y="0"
     inkscape:window-maximized="1"
     inkscape:showpageshadow="2"
     inkscape:pagecheckerboard="0"
     inkscape:deskcolor="#d1d1d1">
    <inkscape:grid
       type="xygrid"
       id="grid815"
       units="mm"
       spacingx="10"
       spacingy="10"
       empspacing="4"
       dotted="false" />
  </sodipodi:namedview>
  <metadata
     id="metadata5">
    <rdf:RDF>
      <cc:Work
         rdf:about="">
        <dc:format>image/svg+xml</dc:format>
        <dc:type
           rdf:resource="http://purl.org/dc/dcmitype/StillImage" />
      </cc:Work>
    </rdf:RDF>
  </metadata>
  <g
     inkscape:label="Layer 1"
     inkscape:groupmode="layer"
     id="layer1"
     transform="translate(0, -177)">
    <rect
       style="fill:#ffffff;fill-rule:evenodd;stroke:#000000;stroke-width:0.3"
       id="rect11138"
       width="180.43773"
       height="72.422356"
       x="35.188961"
       y="195.75351" />
    <text
       xml:space="preserve"
       style="font-size:3.88056px;fill:#000000;fill-opacity:0;fill-rule:evenodd;stroke:#000000;stroke-width:0.3"
       x="68.06794"
       y="185.26781"
       id="text24639"><tspan
         sodipodi:role="line"
         id="tspan24637"
         style="stroke-width:0.3"
         x="68.06794"
         y="185.26781" /></text>
    <g
       transform="matrix(0.458611 0 0 0.458611 21.0956 228.969)"
       ns3:version="1.8.2"
       ns3:texconverter="pdflatex"
       ns3:pdfconverter="inkscape"
       ns3:text="$$S_1'$$"
       ns3:preamble="/home/buyolitsez/.config/inkscape/extensions/textext/default_packages.tex"
       ns3:scale="1.3"
       ns3:alignment="middle center"
       ns3:stroke-to-path="0"
       ns3:inkscapeversion="1.2.2"
       ns3:jacobian_sqrt="0.458611"
       id="g10517">
      <defs
         id="id-c1ee7902-81df-4bcc-9b7e-69420e07ba08">
        <g
           id="id-532a7f99-4db3-4334-92bf-7f53f095d795">
          <g
             id="id-ad24e253-4b89-4482-99bb-8f4f61f29121" />
          <g
             id="id-5d00220e-a47c-4cae-ab24-7cc598fd4ebe">
            <path
               d="m 9.109375,-9.96875 c 0,-0.125 -0.09375,-0.125 -0.125,-0.125 -0.0625,0 -0.078125,0.01563 -0.25,0.21875 C 8.65625,-9.765625 8.0625,-9.015625 8.046875,-9.015625 7.578125,-9.9375 6.625,-10.09375 6.03125,-10.09375 c -1.828125,0 -3.484375,1.65625 -3.484375,3.28125 0,1.078125 0.65625,1.703125 1.359375,1.953125 0.15625,0.046875 1,0.28125 1.421875,0.390625 0.734375,0.1875 0.921875,0.25 1.234375,0.5625 0.046875,0.078125 0.34375,0.40625 0.34375,1.078125 0,1.34375 -1.234375,2.71875 -2.671875,2.71875 -1.171875,0 -2.484375,-0.5 -2.484375,-2.109375 0,-0.28125 0.0625,-0.625 0.09375,-0.765625 0,-0.046875 0.015625,-0.109375 0.015625,-0.140625 0,-0.0625 -0.015625,-0.125 -0.140625,-0.125 -0.125,0 -0.140625,0.015625 -0.203125,0.265625 l -0.734375,2.9375 c 0,0.015625 -0.046875,0.203125 -0.046875,0.21875 0,0.125 0.109375,0.125 0.140625,0.125 0.0625,0 0.078125,-0.015625 0.25,-0.21875 L 1.78125,-0.78125 C 2.125,-0.265625 2.875,0.296875 4.203125,0.296875 6.046875,0.296875 7.75,-1.484375 7.75,-3.28125 7.75,-3.890625 7.609375,-4.421875 7.0625,-4.953125 6.75,-5.25 6.5,-5.328125 5.171875,-5.671875 4.21875,-5.921875 4.09375,-5.96875 3.828125,-6.203125 3.578125,-6.4375 3.40625,-6.78125 3.40625,-7.265625 c 0,-1.21875 1.21875,-2.4375 2.578125,-2.4375 1.40625,0 2.0625,0.859375 2.0625,2.21875 0,0.375 -0.078125,0.75 -0.078125,0.8125 0,0.125 0.125,0.125 0.171875,0.125 0.125,0 0.140625,-0.03125 0.1875,-0.265625 z m 0,0"
               id="id-237bd2d4-52c1-4b49-8729-d1952fc41eb6" />
          </g>
          <g
             id="id-825de5bb-a3c8-477c-9b48-032e7379c47f" />
          <g
             id="id-9fd048ae-3e1f-4e3b-a6d7-05f4483f7c4f">
            <path
               d="m 2.515625,-4.734375 c 0.0625,-0.125 0.09375,-0.203125 0.09375,-0.3125 0,-0.28125 -0.25,-0.53125 -0.5625,-0.53125 -0.28125,0 -0.46875,0.1875 -0.53125,0.453125 l -1.1875,4.359375 c 0,0.015625 -0.03125,0.125 -0.03125,0.140625 0,0.109375 0.25,0.171875 0.328125,0.171875 0.0625,0 0.078125,-0.03125 0.125,-0.15625 z m 0,0"
               id="id-7c56bfc2-5924-41bd-a4d1-2caedb04c3be" />
          </g>
          <g
             id="id-da8aa27c-9b20-406f-9ba6-7db304b5fd19" />
          <g
             id="id-bdbc4487-26ac-42dc-b29d-de4cb0e1a513">
            <path
               d="m 2.9375,-6.375 c 0,-0.25 0,-0.265625 -0.234375,-0.265625 C 2.078125,-6 1.203125,-6 0.890625,-6 v 0.3125 c 0.203125,0 0.78125,0 1.296875,-0.265625 v 5.171875 c 0,0.359375 -0.03125,0.46875 -0.921875,0.46875 h -0.3125 V 0 c 0.34375,-0.03125 1.203125,-0.03125 1.609375,-0.03125 0.390625,0 1.265625,0 1.609375,0.03125 v -0.3125 h -0.3125 c -0.90625,0 -0.921875,-0.109375 -0.921875,-0.46875 z m 0,0"
               id="id-1ff7849d-0c76-465d-88ba-82710254d59a" />
          </g>
        </g>
      </defs>
      <g
         fill="#000000"
         fill-opacity="1"
         id="id-a75d30a8-a981-456d-9dc1-0cd97218f59a"
         transform="translate(-291.312,-55.3829)">
        <g
           transform="translate(290.578,66.884)"
           id="g10506">
          <path
             d="m 9.109375,-9.96875 c 0,-0.125 -0.09375,-0.125 -0.125,-0.125 -0.0625,0 -0.078125,0.01563 -0.25,0.21875 C 8.65625,-9.765625 8.0625,-9.015625 8.046875,-9.015625 7.578125,-9.9375 6.625,-10.09375 6.03125,-10.09375 c -1.828125,0 -3.484375,1.65625 -3.484375,3.28125 0,1.078125 0.65625,1.703125 1.359375,1.953125 0.15625,0.046875 1,0.28125 1.421875,0.390625 0.734375,0.1875 0.921875,0.25 1.234375,0.5625 0.046875,0.078125 0.34375,0.40625 0.34375,1.078125 0,1.34375 -1.234375,2.71875 -2.671875,2.71875 -1.171875,0 -2.484375,-0.5 -2.484375,-2.109375 0,-0.28125 0.0625,-0.625 0.09375,-0.765625 0,-0.046875 0.015625,-0.109375 0.015625,-0.140625 0,-0.0625 -0.015625,-0.125 -0.140625,-0.125 -0.125,0 -0.140625,0.015625 -0.203125,0.265625 l -0.734375,2.9375 c 0,0.015625 -0.046875,0.203125 -0.046875,0.21875 0,0.125 0.109375,0.125 0.140625,0.125 0.0625,0 0.078125,-0.015625 0.25,-0.21875 L 1.78125,-0.78125 C 2.125,-0.265625 2.875,0.296875 4.203125,0.296875 6.046875,0.296875 7.75,-1.484375 7.75,-3.28125 7.75,-3.890625 7.609375,-4.421875 7.0625,-4.953125 6.75,-5.25 6.5,-5.328125 5.171875,-5.671875 4.21875,-5.921875 4.09375,-5.96875 3.828125,-6.203125 3.578125,-6.4375 3.40625,-6.78125 3.40625,-7.265625 c 0,-1.21875 1.21875,-2.4375 2.578125,-2.4375 1.40625,0 2.0625,0.859375 2.0625,2.21875 0,0.375 -0.078125,0.75 -0.078125,0.8125 0,0.125 0.125,0.125 0.171875,0.125 0.125,0 0.140625,-0.03125 0.1875,-0.265625 z m 0,0"
             id="id-37e74b61-a16d-4e3c-b677-87589f522c96" />
        </g>
      </g>
      <g
         fill="#000000"
         fill-opacity="1"
         id="id-9be74b4b-6cf0-4042-95f2-3375adc727ea"
         transform="translate(-291.312,-55.3829)">
        <g
           transform="translate(300.053,60.961)"
           id="g10510">
          <path
             d="m 2.515625,-4.734375 c 0.0625,-0.125 0.09375,-0.203125 0.09375,-0.3125 0,-0.28125 -0.25,-0.53125 -0.5625,-0.53125 -0.28125,0 -0.46875,0.1875 -0.53125,0.453125 l -1.1875,4.359375 c 0,0.015625 -0.03125,0.125 -0.03125,0.140625 0,0.109375 0.25,0.171875 0.328125,0.171875 0.0625,0 0.078125,-0.03125 0.125,-0.15625 z m 0,0"
             id="id-4c96ab02-032a-4334-ae5b-3418bc94f8a6" />
        </g>
      </g>
      <g
         fill="#000000"
         fill-opacity="1"
         id="id-4357a158-20a2-44fb-8887-b4ba4f176a50"
         transform="translate(-291.312,-55.3829)">
        <g
           transform="translate(299.218,70.431)"
           id="g10514">
          <path
             d="m 2.9375,-6.375 c 0,-0.25 0,-0.265625 -0.234375,-0.265625 C 2.078125,-6 1.203125,-6 0.890625,-6 v 0.3125 c 0.203125,0 0.78125,0 1.296875,-0.265625 v 5.171875 c 0,0.359375 -0.03125,0.46875 -0.921875,0.46875 h -0.3125 V 0 c 0.34375,-0.03125 1.203125,-0.03125 1.609375,-0.03125 0.390625,0 1.265625,0 1.609375,0.03125 v -0.3125 h -0.3125 c -0.90625,0 -0.921875,-0.109375 -0.921875,-0.46875 z m 0,0"
             id="id-922487b3-7a25-44ac-a0dc-8e73b409f675" />
        </g>
      </g>
      <path
         style="fill:#000000;fill-opacity:0;fill-rule:evenodd;stroke:#000000;stroke-width:0.65415"
         d="M 61.042909,-72.232126 V 85.80629"
         id="path22427" />
      <path
         style="fill:#000000;fill-opacity:0;fill-rule:evenodd;stroke:#000000;stroke-width:0.65415"
         d="M 61.042909,-72.232126 V 85.80629"
         id="path22429" />
      <path
         style="fill:#000000;fill-opacity:0;fill-rule:evenodd;stroke:#000000;stroke-width:0.65415"
         d="M 89.861524,-72.232126 V 85.80629"
         id="path22431" />
      <path
         style="fill:#000000;fill-opacity:0;fill-rule:evenodd;stroke:#000000;stroke-width:0.65415"
         d="M 118.01314,-72.232126 V 85.80629"
         id="path22433" />
      <path
         style="fill:#000000;fill-opacity:0;fill-rule:evenodd;stroke:#000000;stroke-width:0.65415"
         d="M 149.03357,-72.232126 V 85.80629"
         id="path22435" />
      <path
         style="fill:#000000;fill-opacity:0;fill-rule:evenodd;stroke:#000000;stroke-width:0.65415"
         d="M 178.13071,-72.232126 V 85.80629"
         id="path22437" />
      <path
         style="fill:#000000;fill-opacity:0;fill-rule:evenodd;stroke:#000000;stroke-width:0.65415"
         d="M 203.8401,-72.232126 V 85.80629"
         id="path22439" />
      <path
         style="fill:#000000;fill-opacity:0;fill-rule:evenodd;stroke:#000000;stroke-width:0.65415"
         d="M 232.46961,-72.232126 V 85.80629"
         id="path22441" />
      <path
         style="fill:#000000;fill-opacity:0;fill-rule:evenodd;stroke:#000000;stroke-width:0.65415"
         d="M 259.95277,-72.232126 V 85.80629"
         id="path22443" />
      <path
         style="fill:#000000;fill-opacity:0;fill-rule:evenodd;stroke:#000000;stroke-width:0.65415"
         d="M 286.28078,-72.232126 V 85.80629"
         id="path22445" />
      <path
         style="fill:#000000;fill-opacity:0;fill-rule:evenodd;stroke:#000000;stroke-width:0.65415"
         d="M 313.21568,-72.232126 V 85.80629"
         id="path22447" />
      <path
         style="fill:#000000;fill-opacity:0;fill-rule:evenodd;stroke:#000000;stroke-width:0.65415"
         d="M 338.3944,-72.232126 V 85.80629"
         id="path22449" />
      <path
         style="fill:#000000;fill-opacity:0;fill-rule:evenodd;stroke:#000000;stroke-width:0.65415"
         d="M 359.31901,-72.232126 V 85.80629"
         id="path22451" />
      <path
         style="fill:#000000;fill-opacity:0;fill-rule:evenodd;stroke:#000000;stroke-width:0.65415"
         d="M 381.77698,-72.232126 V 85.80629"
         id="path22453" />
      <path
         style="fill:#000000;fill-opacity:0;fill-rule:evenodd;stroke:#000000;stroke-width:0.65415"
         d="M 401.48634,-72.232126 V 85.80629"
         id="path22455" />
      <g
         transform="translate(186.43783,-4.5295816)"
         ns3:version="1.8.2"
         ns3:texconverter="pdflatex"
         ns3:pdfconverter="inkscape"
         ns3:text="$$7$$"
         ns3:preamble="/home/buyolitsez/.config/inkscape/extensions/textext/default_packages.tex"
         ns3:scale="1.3"
         ns3:alignment="middle center"
         ns3:stroke-to-path="0"
         ns3:inkscapeversion="1.2.2"
         ns3:jacobian_sqrt="1.0"
         id="g22557">
        <defs
           id="id-c9f66f96-27be-4a8b-8e11-9826ac58c96d">
          <g
             id="id-ad42cb0b-7235-4b61-92ec-ebab9566d669">
            <g
               id="id-0e68c74b-ebe5-4394-a039-cf88020ab0ba" />
            <g
               id="id-639de5c2-4ea7-49bf-968d-36f4c631f361">
              <path
                 d="M 6.8125,-8.90625 V -9.234375 H 3.359375 c -1.734375,0 -1.765625,-0.1875 -1.828125,-0.46875 h -0.3125 l -0.4375,2.875 h 0.3125 c 0.046875,-0.25 0.171875,-1.140625 0.359375,-1.3125 C 1.5625,-8.21875 2.640625,-8.21875 2.84375,-8.21875 H 5.875 l -1.515625,2.1875 C 3.96875,-5.484375 2.53125,-3.125 2.53125,-0.4375 c 0,0.171875 0,0.734375 0.578125,0.734375 0.609375,0 0.609375,-0.5625 0.609375,-0.734375 v -0.71875 c 0,-2.140625 0.34375,-3.8125 1.015625,-4.765625 z m 0,0"
                 id="id-6e6b10f4-a83d-4678-807e-17e276361eba" />
            </g>
          </g>
        </defs>
        <g
           fill="#000000"
           fill-opacity="1"
           id="id-e95610ee-5874-4d36-b353-5d59a90d98b6"
           transform="translate(-294.907,-57.1809)">
          <g
             transform="translate(294.126,66.884)"
             id="g22554">
            <path
               d="M 6.8125,-8.90625 V -9.234375 H 3.359375 c -1.734375,0 -1.765625,-0.1875 -1.828125,-0.46875 h -0.3125 l -0.4375,2.875 h 0.3125 c 0.046875,-0.25 0.171875,-1.140625 0.359375,-1.3125 C 1.5625,-8.21875 2.640625,-8.21875 2.84375,-8.21875 H 5.875 l -1.515625,2.1875 C 3.96875,-5.484375 2.53125,-3.125 2.53125,-0.4375 c 0,0.171875 0,0.734375 0.578125,0.734375 0.609375,0 0.609375,-0.5625 0.609375,-0.734375 v -0.71875 c 0,-2.140625 0.34375,-3.8125 1.015625,-4.765625 z m 0,0"
               id="id-179a4589-069c-4a28-bd3f-a4614e1f31ed" />
          </g>
        </g>
      </g>
      <g
         transform="translate(318.98039,-5.5701118)"
         ns3:version="1.8.2"
         ns3:texconverter="pdflatex"
         ns3:pdfconverter="inkscape"
         ns3:text="$$20$$"
         ns3:preamble="/home/buyolitsez/.config/inkscape/extensions/textext/default_packages.tex"
         ns3:scale="1.3"
         ns3:alignment="middle center"
         ns3:stroke-to-path="0"
         ns3:inkscapeversion="1.2.2"
         ns3:jacobian_sqrt="1.0"
         id="g23456">
        <defs
           id="id-f47bca9b-b4a5-45e7-8001-ed7db67b204f">
          <g
             id="id-788e2e59-75a8-425e-af05-718d90e02fca">
            <g
               id="id-4826047b-cd98-4642-b716-45f76f10c81f" />
            <g
               id="id-56971bdf-22ec-43f7-89b7-bb094cbff867">
              <path
                 d="M 6.3125,-2.40625 H 6 c -0.046875,0.234375 -0.15625,1.03125 -0.3125,1.265625 -0.09375,0.125 -0.90625,0.125 -1.34375,0.125 H 1.6875 c 0.390625,-0.328125 1.265625,-1.25 1.640625,-1.59375 2.1875,-2.015625 2.984375,-2.75 2.984375,-4.171875 0,-1.65625 -1.3125,-2.75 -2.96875,-2.75 -1.671875,0 -2.640625,1.40625 -2.640625,2.640625 0,0.734375 0.625,0.734375 0.671875,0.734375 0.296875,0 0.671875,-0.21875 0.671875,-0.671875 C 2.046875,-7.234375 1.78125,-7.5 1.375,-7.5 1.25,-7.5 1.21875,-7.5 1.171875,-7.484375 1.453125,-8.46875 2.21875,-9.125 3.15625,-9.125 4.375,-9.125 5.125,-8.109375 5.125,-6.78125 5.125,-5.5625 4.421875,-4.5 3.59375,-3.578125 L 0.703125,-0.34375 V 0 H 5.9375 Z m 0,0"
                 id="id-cde8e01b-fe0f-4af1-8ba0-8e17c93d6f17" />
            </g>
            <g
               id="id-5af7eaa8-9e38-4a3e-aa7b-86cd8a6a2f3c">
              <path
                 d="m 6.421875,-4.59375 c 0,-1.1875 -0.0625,-2.34375 -0.578125,-3.4375 -0.59375,-1.1875 -1.625,-1.5 -2.328125,-1.5 -0.828125,0 -1.859375,0.40625 -2.375,1.59375 -0.40625,0.90625 -0.546875,1.796875 -0.546875,3.34375 0,1.390625 0.09375,2.4375 0.609375,3.453125 0.5625,1.09375 1.546875,1.4375 2.296875,1.4375 1.25,0 1.96875,-0.734375 2.375,-1.578125 0.515625,-1.078125 0.546875,-2.484375 0.546875,-3.3125 z M 3.5,0.015625 C 3.046875,0.015625 2.109375,-0.25 1.84375,-1.8125 1.671875,-2.671875 1.671875,-3.765625 1.671875,-4.765625 1.671875,-5.9375 1.671875,-7 1.90625,-7.84375 2.15625,-8.8125 2.890625,-9.25 3.5,-9.25 c 0.546875,0 1.375,0.328125 1.65625,1.5625 0.171875,0.8125 0.171875,1.953125 0.171875,2.921875 0,0.96875 0,2.046875 -0.15625,2.921875 C 4.90625,-0.265625 4,0.015625 3.5,0.015625 Z m 0,0"
                 id="id-ddad5af3-3a1a-44f5-9a67-2809e6266719" />
            </g>
          </g>
        </defs>
        <g
           fill="#000000"
           fill-opacity="1"
           id="id-9749b757-1d9b-4bc6-a0f6-1bad4f0fec31"
           transform="translate(-291.317,-57.3528)">
          <g
             transform="translate(290.614,66.884)"
             id="g23450">
            <path
               d="M 6.3125,-2.40625 H 6 c -0.046875,0.234375 -0.15625,1.03125 -0.3125,1.265625 -0.09375,0.125 -0.90625,0.125 -1.34375,0.125 H 1.6875 c 0.390625,-0.328125 1.265625,-1.25 1.640625,-1.59375 2.1875,-2.015625 2.984375,-2.75 2.984375,-4.171875 0,-1.65625 -1.3125,-2.75 -2.96875,-2.75 -1.671875,0 -2.640625,1.40625 -2.640625,2.640625 0,0.734375 0.625,0.734375 0.671875,0.734375 0.296875,0 0.671875,-0.21875 0.671875,-0.671875 C 2.046875,-7.234375 1.78125,-7.5 1.375,-7.5 1.25,-7.5 1.21875,-7.5 1.171875,-7.484375 1.453125,-8.46875 2.21875,-9.125 3.15625,-9.125 4.375,-9.125 5.125,-8.109375 5.125,-6.78125 5.125,-5.5625 4.421875,-4.5 3.59375,-3.578125 L 0.703125,-0.34375 V 0 H 5.9375 Z m 0,0"
               id="id-56bdab3b-9e24-4045-ac48-b223ec690de8" />
          </g>
          <g
             transform="translate(297.638,66.884)"
             id="g23453">
            <path
               d="m 6.421875,-4.59375 c 0,-1.1875 -0.0625,-2.34375 -0.578125,-3.4375 -0.59375,-1.1875 -1.625,-1.5 -2.328125,-1.5 -0.828125,0 -1.859375,0.40625 -2.375,1.59375 -0.40625,0.90625 -0.546875,1.796875 -0.546875,3.34375 0,1.390625 0.09375,2.4375 0.609375,3.453125 0.5625,1.09375 1.546875,1.4375 2.296875,1.4375 1.25,0 1.96875,-0.734375 2.375,-1.578125 0.515625,-1.078125 0.546875,-2.484375 0.546875,-3.3125 z M 3.5,0.015625 C 3.046875,0.015625 2.109375,-0.25 1.84375,-1.8125 1.671875,-2.671875 1.671875,-3.765625 1.671875,-4.765625 1.671875,-5.9375 1.671875,-7 1.90625,-7.84375 2.15625,-8.8125 2.890625,-9.25 3.5,-9.25 c 0.546875,0 1.375,0.328125 1.65625,1.5625 0.171875,0.8125 0.171875,1.953125 0.171875,2.921875 0,0.96875 0,2.046875 -0.15625,2.921875 C 4.90625,-0.265625 4,0.015625 3.5,0.015625 Z m 0,0"
               id="id-63a76f15-1f41-4df4-8f77-479948706843" />
          </g>
        </g>
      </g>
      <g
         transform="translate(37.847527,-3.5850743)"
         ns3:version="1.8.2"
         ns3:texconverter="pdflatex"
         ns3:pdfconverter="inkscape"
         ns3:text="$$\\infty$$"
         ns3:preamble="/home/buyolitsez/.config/inkscape/extensions/textext/default_packages.tex"
         ns3:scale="1.3"
         ns3:alignment="middle center"
         ns3:stroke-to-path="0"
         ns3:inkscapeversion="1.2.2"
         ns3:jacobian_sqrt="1.0"
         id="g24343">
        <defs
           id="id-24c169a9-0b39-416a-a82f-b92cd6eec5af">
          <g
             id="id-593f4e56-c5af-4ebd-88a2-cfe1834095c9">
            <g
               id="id-a463791a-6976-496b-afd4-ebf732ca66b2" />
            <g
               id="id-da4f4e24-97ea-4958-b09f-f7eff9fcfdd4">
              <path
                 d="M 7.28125,-3.890625 C 6.515625,-4.859375 6.34375,-5.078125 5.890625,-5.4375 5.09375,-6.078125 4.28125,-6.34375 3.5625,-6.34375 c -1.6875,0 -2.78125,1.578125 -2.78125,3.265625 0,1.640625 1.0625,3.234375 2.71875,3.234375 1.65625,0 2.84375,-1.296875 3.546875,-2.453125 0.765625,0.984375 0.9375,1.1875 1.390625,1.546875 0.796875,0.65625 1.609375,0.90625 2.328125,0.90625 1.6875,0 2.78125,-1.578125 2.78125,-3.25 0,-1.65625 -1.0625,-3.25 -2.71875,-3.25 -1.640625,0 -2.84375,1.3125 -3.546875,2.453125 z m 0.375,0.484375 C 8.25,-4.4375 9.3125,-5.875 10.9375,-5.875 c 1.515625,0 2.28125,1.484375 2.28125,2.78125 0,1.40625 -0.953125,2.5625 -2.21875,2.5625 -0.828125,0 -1.46875,-0.609375 -1.78125,-0.90625 -0.359375,-0.390625 -0.6875,-0.828125 -1.5625,-1.96875 z m -0.984375,0.625 c -0.59375,1.03125 -1.65625,2.484375 -3.265625,2.484375 -1.53125,0 -2.296875,-1.5 -2.296875,-2.78125 0,-1.40625 0.953125,-2.578125 2.21875,-2.578125 0.828125,0 1.484375,0.609375 1.78125,0.90625 0.359375,0.390625 0.6875,0.828125 1.5625,1.96875 z m 0,0"
                 id="id-475483fb-a120-4386-9c55-e4914c7f58a8" />
            </g>
          </g>
        </defs>
        <g
           fill="#000000"
           fill-opacity="1"
           id="id-b65371d6-3dda-4db6-8ac3-0f7b09e0d9a3"
           transform="translate(-291.246,-60.5403)">
          <g
             transform="translate(290.465,66.884)"
             id="g24340">
            <path
               d="M 7.28125,-3.890625 C 6.515625,-4.859375 6.34375,-5.078125 5.890625,-5.4375 5.09375,-6.078125 4.28125,-6.34375 3.5625,-6.34375 c -1.6875,0 -2.78125,1.578125 -2.78125,3.265625 0,1.640625 1.0625,3.234375 2.71875,3.234375 1.65625,0 2.84375,-1.296875 3.546875,-2.453125 0.765625,0.984375 0.9375,1.1875 1.390625,1.546875 0.796875,0.65625 1.609375,0.90625 2.328125,0.90625 1.6875,0 2.78125,-1.578125 2.78125,-3.25 0,-1.65625 -1.0625,-3.25 -2.71875,-3.25 -1.640625,0 -2.84375,1.3125 -3.546875,2.453125 z m 0.375,0.484375 C 8.25,-4.4375 9.3125,-5.875 10.9375,-5.875 c 1.515625,0 2.28125,1.484375 2.28125,2.78125 0,1.40625 -0.953125,2.5625 -2.21875,2.5625 -0.828125,0 -1.46875,-0.609375 -1.78125,-0.90625 -0.359375,-0.390625 -0.6875,-0.828125 -1.5625,-1.96875 z m -0.984375,0.625 c -0.59375,1.03125 -1.65625,2.484375 -3.265625,2.484375 -1.53125,0 -2.296875,-1.5 -2.296875,-2.78125 0,-1.40625 0.953125,-2.578125 2.21875,-2.578125 0.828125,0 1.484375,0.609375 1.78125,0.90625 0.359375,0.390625 0.6875,0.828125 1.5625,1.96875 z m 0,0"
               id="id-00ba79f2-6152-4c7e-b384-397752feac81" />
          </g>
        </g>
      </g>
      <g
         transform="translate(69.841335,-3.5850743)"
         ns3:version="1.8.2"
         ns3:texconverter="pdflatex"
         ns3:pdfconverter="inkscape"
         ns3:text="$$\\infty$$"
         ns3:preamble="/home/buyolitsez/.config/inkscape/extensions/textext/default_packages.tex"
         ns3:scale="1.3"
         ns3:alignment="middle center"
         ns3:stroke-to-path="0"
         ns3:inkscapeversion="1.2.2"
         ns3:jacobian_sqrt="1.0"
         id="g24374">
        <defs
           id="defs24366">
          <g
             id="g24364">
            <g
               id="g24358" />
            <g
               id="g24362">
              <path
                 d="M 7.28125,-3.890625 C 6.515625,-4.859375 6.34375,-5.078125 5.890625,-5.4375 5.09375,-6.078125 4.28125,-6.34375 3.5625,-6.34375 c -1.6875,0 -2.78125,1.578125 -2.78125,3.265625 0,1.640625 1.0625,3.234375 2.71875,3.234375 1.65625,0 2.84375,-1.296875 3.546875,-2.453125 0.765625,0.984375 0.9375,1.1875 1.390625,1.546875 0.796875,0.65625 1.609375,0.90625 2.328125,0.90625 1.6875,0 2.78125,-1.578125 2.78125,-3.25 0,-1.65625 -1.0625,-3.25 -2.71875,-3.25 -1.640625,0 -2.84375,1.3125 -3.546875,2.453125 z m 0.375,0.484375 C 8.25,-4.4375 9.3125,-5.875 10.9375,-5.875 c 1.515625,0 2.28125,1.484375 2.28125,2.78125 0,1.40625 -0.953125,2.5625 -2.21875,2.5625 -0.828125,0 -1.46875,-0.609375 -1.78125,-0.90625 -0.359375,-0.390625 -0.6875,-0.828125 -1.5625,-1.96875 z m -0.984375,0.625 c -0.59375,1.03125 -1.65625,2.484375 -3.265625,2.484375 -1.53125,0 -2.296875,-1.5 -2.296875,-2.78125 0,-1.40625 0.953125,-2.578125 2.21875,-2.578125 0.828125,0 1.484375,0.609375 1.78125,0.90625 0.359375,0.390625 0.6875,0.828125 1.5625,1.96875 z m 0,0"
                 id="path24360" />
            </g>
          </g>
        </defs>
        <g
           fill="#000000"
           fill-opacity="1"
           id="g24372"
           transform="translate(-291.246,-60.5403)">
          <g
             transform="translate(290.465,66.884)"
             id="g24370">
            <path
               d="M 7.28125,-3.890625 C 6.515625,-4.859375 6.34375,-5.078125 5.890625,-5.4375 5.09375,-6.078125 4.28125,-6.34375 3.5625,-6.34375 c -1.6875,0 -2.78125,1.578125 -2.78125,3.265625 0,1.640625 1.0625,3.234375 2.71875,3.234375 1.65625,0 2.84375,-1.296875 3.546875,-2.453125 0.765625,0.984375 0.9375,1.1875 1.390625,1.546875 0.796875,0.65625 1.609375,0.90625 2.328125,0.90625 1.6875,0 2.78125,-1.578125 2.78125,-3.25 0,-1.65625 -1.0625,-3.25 -2.71875,-3.25 -1.640625,0 -2.84375,1.3125 -3.546875,2.453125 z m 0.375,0.484375 C 8.25,-4.4375 9.3125,-5.875 10.9375,-5.875 c 1.515625,0 2.28125,1.484375 2.28125,2.78125 0,1.40625 -0.953125,2.5625 -2.21875,2.5625 -0.828125,0 -1.46875,-0.609375 -1.78125,-0.90625 -0.359375,-0.390625 -0.6875,-0.828125 -1.5625,-1.96875 z m -0.984375,0.625 c -0.59375,1.03125 -1.65625,2.484375 -3.265625,2.484375 -1.53125,0 -2.296875,-1.5 -2.296875,-2.78125 0,-1.40625 0.953125,-2.578125 2.21875,-2.578125 0.828125,0 1.484375,0.609375 1.78125,0.90625 0.359375,0.390625 0.6875,0.828125 1.5625,1.96875 z m 0,0"
               id="path24368" />
          </g>
        </g>
      </g>
      <g
         transform="translate(96.982932,-3.5850743)"
         ns3:version="1.8.2"
         ns3:texconverter="pdflatex"
         ns3:pdfconverter="inkscape"
         ns3:text="$$\\infty$$"
         ns3:preamble="/home/buyolitsez/.config/inkscape/extensions/textext/default_packages.tex"
         ns3:scale="1.3"
         ns3:alignment="middle center"
         ns3:stroke-to-path="0"
         ns3:inkscapeversion="1.2.2"
         ns3:jacobian_sqrt="1.0"
         id="g24392">
        <defs
           id="defs24384">
          <g
             id="g24382">
            <g
               id="g24376" />
            <g
               id="g24380">
              <path
                 d="M 7.28125,-3.890625 C 6.515625,-4.859375 6.34375,-5.078125 5.890625,-5.4375 5.09375,-6.078125 4.28125,-6.34375 3.5625,-6.34375 c -1.6875,0 -2.78125,1.578125 -2.78125,3.265625 0,1.640625 1.0625,3.234375 2.71875,3.234375 1.65625,0 2.84375,-1.296875 3.546875,-2.453125 0.765625,0.984375 0.9375,1.1875 1.390625,1.546875 0.796875,0.65625 1.609375,0.90625 2.328125,0.90625 1.6875,0 2.78125,-1.578125 2.78125,-3.25 0,-1.65625 -1.0625,-3.25 -2.71875,-3.25 -1.640625,0 -2.84375,1.3125 -3.546875,2.453125 z m 0.375,0.484375 C 8.25,-4.4375 9.3125,-5.875 10.9375,-5.875 c 1.515625,0 2.28125,1.484375 2.28125,2.78125 0,1.40625 -0.953125,2.5625 -2.21875,2.5625 -0.828125,0 -1.46875,-0.609375 -1.78125,-0.90625 -0.359375,-0.390625 -0.6875,-0.828125 -1.5625,-1.96875 z m -0.984375,0.625 c -0.59375,1.03125 -1.65625,2.484375 -3.265625,2.484375 -1.53125,0 -2.296875,-1.5 -2.296875,-2.78125 0,-1.40625 0.953125,-2.578125 2.21875,-2.578125 0.828125,0 1.484375,0.609375 1.78125,0.90625 0.359375,0.390625 0.6875,0.828125 1.5625,1.96875 z m 0,0"
                 id="path24378" />
            </g>
          </g>
        </defs>
        <g
           fill="#000000"
           fill-opacity="1"
           id="g24390"
           transform="translate(-291.246,-60.5403)">
          <g
             transform="translate(290.465,66.884)"
             id="g24388">
            <path
               d="M 7.28125,-3.890625 C 6.515625,-4.859375 6.34375,-5.078125 5.890625,-5.4375 5.09375,-6.078125 4.28125,-6.34375 3.5625,-6.34375 c -1.6875,0 -2.78125,1.578125 -2.78125,3.265625 0,1.640625 1.0625,3.234375 2.71875,3.234375 1.65625,0 2.84375,-1.296875 3.546875,-2.453125 0.765625,0.984375 0.9375,1.1875 1.390625,1.546875 0.796875,0.65625 1.609375,0.90625 2.328125,0.90625 1.6875,0 2.78125,-1.578125 2.78125,-3.25 0,-1.65625 -1.0625,-3.25 -2.71875,-3.25 -1.640625,0 -2.84375,1.3125 -3.546875,2.453125 z m 0.375,0.484375 C 8.25,-4.4375 9.3125,-5.875 10.9375,-5.875 c 1.515625,0 2.28125,1.484375 2.28125,2.78125 0,1.40625 -0.953125,2.5625 -2.21875,2.5625 -0.828125,0 -1.46875,-0.609375 -1.78125,-0.90625 -0.359375,-0.390625 -0.6875,-0.828125 -1.5625,-1.96875 z m -0.984375,0.625 c -0.59375,1.03125 -1.65625,2.484375 -3.265625,2.484375 -1.53125,0 -2.296875,-1.5 -2.296875,-2.78125 0,-1.40625 0.953125,-2.578125 2.21875,-2.578125 0.828125,0 1.484375,0.609375 1.78125,0.90625 0.359375,0.390625 0.6875,0.828125 1.5625,1.96875 z m 0,0"
               id="path24386" />
          </g>
        </g>
      </g>
      <g
         transform="translate(125.94081,-3.5850743)"
         ns3:version="1.8.2"
         ns3:texconverter="pdflatex"
         ns3:pdfconverter="inkscape"
         ns3:text="$$\\infty$$"
         ns3:preamble="/home/buyolitsez/.config/inkscape/extensions/textext/default_packages.tex"
         ns3:scale="1.3"
         ns3:alignment="middle center"
         ns3:stroke-to-path="0"
         ns3:inkscapeversion="1.2.2"
         ns3:jacobian_sqrt="1.0"
         id="g24410">
        <defs
           id="defs24402">
          <g
             id="g24400">
            <g
               id="g24394" />
            <g
               id="g24398">
              <path
                 d="M 7.28125,-3.890625 C 6.515625,-4.859375 6.34375,-5.078125 5.890625,-5.4375 5.09375,-6.078125 4.28125,-6.34375 3.5625,-6.34375 c -1.6875,0 -2.78125,1.578125 -2.78125,3.265625 0,1.640625 1.0625,3.234375 2.71875,3.234375 1.65625,0 2.84375,-1.296875 3.546875,-2.453125 0.765625,0.984375 0.9375,1.1875 1.390625,1.546875 0.796875,0.65625 1.609375,0.90625 2.328125,0.90625 1.6875,0 2.78125,-1.578125 2.78125,-3.25 0,-1.65625 -1.0625,-3.25 -2.71875,-3.25 -1.640625,0 -2.84375,1.3125 -3.546875,2.453125 z m 0.375,0.484375 C 8.25,-4.4375 9.3125,-5.875 10.9375,-5.875 c 1.515625,0 2.28125,1.484375 2.28125,2.78125 0,1.40625 -0.953125,2.5625 -2.21875,2.5625 -0.828125,0 -1.46875,-0.609375 -1.78125,-0.90625 -0.359375,-0.390625 -0.6875,-0.828125 -1.5625,-1.96875 z m -0.984375,0.625 c -0.59375,1.03125 -1.65625,2.484375 -3.265625,2.484375 -1.53125,0 -2.296875,-1.5 -2.296875,-2.78125 0,-1.40625 0.953125,-2.578125 2.21875,-2.578125 0.828125,0 1.484375,0.609375 1.78125,0.90625 0.359375,0.390625 0.6875,0.828125 1.5625,1.96875 z m 0,0"
                 id="path24396" />
            </g>
          </g>
        </defs>
        <g
           fill="#000000"
           fill-opacity="1"
           id="g24408"
           transform="translate(-291.246,-60.5403)">
          <g
             transform="translate(290.465,66.884)"
             id="g24406">
            <path
               d="M 7.28125,-3.890625 C 6.515625,-4.859375 6.34375,-5.078125 5.890625,-5.4375 5.09375,-6.078125 4.28125,-6.34375 3.5625,-6.34375 c -1.6875,0 -2.78125,1.578125 -2.78125,3.265625 0,1.640625 1.0625,3.234375 2.71875,3.234375 1.65625,0 2.84375,-1.296875 3.546875,-2.453125 0.765625,0.984375 0.9375,1.1875 1.390625,1.546875 0.796875,0.65625 1.609375,0.90625 2.328125,0.90625 1.6875,0 2.78125,-1.578125 2.78125,-3.25 0,-1.65625 -1.0625,-3.25 -2.71875,-3.25 -1.640625,0 -2.84375,1.3125 -3.546875,2.453125 z m 0.375,0.484375 C 8.25,-4.4375 9.3125,-5.875 10.9375,-5.875 c 1.515625,0 2.28125,1.484375 2.28125,2.78125 0,1.40625 -0.953125,2.5625 -2.21875,2.5625 -0.828125,0 -1.46875,-0.609375 -1.78125,-0.90625 -0.359375,-0.390625 -0.6875,-0.828125 -1.5625,-1.96875 z m -0.984375,0.625 c -0.59375,1.03125 -1.65625,2.484375 -3.265625,2.484375 -1.53125,0 -2.296875,-1.5 -2.296875,-2.78125 0,-1.40625 0.953125,-2.578125 2.21875,-2.578125 0.828125,0 1.484375,0.609375 1.78125,0.90625 0.359375,0.390625 0.6875,0.828125 1.5625,1.96875 z m 0,0"
               id="path24404" />
          </g>
        </g>
      </g>
      <g
         transform="translate(155.96295,-3.5850743)"
         ns3:version="1.8.2"
         ns3:texconverter="pdflatex"
         ns3:pdfconverter="inkscape"
         ns3:text="$$\\infty$$"
         ns3:preamble="/home/buyolitsez/.config/inkscape/extensions/textext/default_packages.tex"
         ns3:scale="1.3"
         ns3:alignment="middle center"
         ns3:stroke-to-path="0"
         ns3:inkscapeversion="1.2.2"
         ns3:jacobian_sqrt="1.0"
         id="g24428">
        <defs
           id="defs24420">
          <g
             id="g24418">
            <g
               id="g24412" />
            <g
               id="g24416">
              <path
                 d="M 7.28125,-3.890625 C 6.515625,-4.859375 6.34375,-5.078125 5.890625,-5.4375 5.09375,-6.078125 4.28125,-6.34375 3.5625,-6.34375 c -1.6875,0 -2.78125,1.578125 -2.78125,3.265625 0,1.640625 1.0625,3.234375 2.71875,3.234375 1.65625,0 2.84375,-1.296875 3.546875,-2.453125 0.765625,0.984375 0.9375,1.1875 1.390625,1.546875 0.796875,0.65625 1.609375,0.90625 2.328125,0.90625 1.6875,0 2.78125,-1.578125 2.78125,-3.25 0,-1.65625 -1.0625,-3.25 -2.71875,-3.25 -1.640625,0 -2.84375,1.3125 -3.546875,2.453125 z m 0.375,0.484375 C 8.25,-4.4375 9.3125,-5.875 10.9375,-5.875 c 1.515625,0 2.28125,1.484375 2.28125,2.78125 0,1.40625 -0.953125,2.5625 -2.21875,2.5625 -0.828125,0 -1.46875,-0.609375 -1.78125,-0.90625 -0.359375,-0.390625 -0.6875,-0.828125 -1.5625,-1.96875 z m -0.984375,0.625 c -0.59375,1.03125 -1.65625,2.484375 -3.265625,2.484375 -1.53125,0 -2.296875,-1.5 -2.296875,-2.78125 0,-1.40625 0.953125,-2.578125 2.21875,-2.578125 0.828125,0 1.484375,0.609375 1.78125,0.90625 0.359375,0.390625 0.6875,0.828125 1.5625,1.96875 z m 0,0"
                 id="path24414" />
            </g>
          </g>
        </defs>
        <g
           fill="#000000"
           fill-opacity="1"
           id="g24426"
           transform="translate(-291.246,-60.5403)">
          <g
             transform="translate(290.465,66.884)"
             id="g24424">
            <path
               d="M 7.28125,-3.890625 C 6.515625,-4.859375 6.34375,-5.078125 5.890625,-5.4375 5.09375,-6.078125 4.28125,-6.34375 3.5625,-6.34375 c -1.6875,0 -2.78125,1.578125 -2.78125,3.265625 0,1.640625 1.0625,3.234375 2.71875,3.234375 1.65625,0 2.84375,-1.296875 3.546875,-2.453125 0.765625,0.984375 0.9375,1.1875 1.390625,1.546875 0.796875,0.65625 1.609375,0.90625 2.328125,0.90625 1.6875,0 2.78125,-1.578125 2.78125,-3.25 0,-1.65625 -1.0625,-3.25 -2.71875,-3.25 -1.640625,0 -2.84375,1.3125 -3.546875,2.453125 z m 0.375,0.484375 C 8.25,-4.4375 9.3125,-5.875 10.9375,-5.875 c 1.515625,0 2.28125,1.484375 2.28125,2.78125 0,1.40625 -0.953125,2.5625 -2.21875,2.5625 -0.828125,0 -1.46875,-0.609375 -1.78125,-0.90625 -0.359375,-0.390625 -0.6875,-0.828125 -1.5625,-1.96875 z m -0.984375,0.625 c -0.59375,1.03125 -1.65625,2.484375 -3.265625,2.484375 -1.53125,0 -2.296875,-1.5 -2.296875,-2.78125 0,-1.40625 0.953125,-2.578125 2.21875,-2.578125 0.828125,0 1.484375,0.609375 1.78125,0.90625 0.359375,0.390625 0.6875,0.828125 1.5625,1.96875 z m 0,0"
               id="path24422" />
          </g>
        </g>
      </g>
      <g
         transform="translate(210.20363,-3.5850743)"
         ns3:version="1.8.2"
         ns3:texconverter="pdflatex"
         ns3:pdfconverter="inkscape"
         ns3:text="$$\\infty$$"
         ns3:preamble="/home/buyolitsez/.config/inkscape/extensions/textext/default_packages.tex"
         ns3:scale="1.3"
         ns3:alignment="middle center"
         ns3:stroke-to-path="0"
         ns3:inkscapeversion="1.2.2"
         ns3:jacobian_sqrt="1.0"
         id="g24446">
        <defs
           id="defs24438">
          <g
             id="g24436">
            <g
               id="g24430" />
            <g
               id="g24434">
              <path
                 d="M 7.28125,-3.890625 C 6.515625,-4.859375 6.34375,-5.078125 5.890625,-5.4375 5.09375,-6.078125 4.28125,-6.34375 3.5625,-6.34375 c -1.6875,0 -2.78125,1.578125 -2.78125,3.265625 0,1.640625 1.0625,3.234375 2.71875,3.234375 1.65625,0 2.84375,-1.296875 3.546875,-2.453125 0.765625,0.984375 0.9375,1.1875 1.390625,1.546875 0.796875,0.65625 1.609375,0.90625 2.328125,0.90625 1.6875,0 2.78125,-1.578125 2.78125,-3.25 0,-1.65625 -1.0625,-3.25 -2.71875,-3.25 -1.640625,0 -2.84375,1.3125 -3.546875,2.453125 z m 0.375,0.484375 C 8.25,-4.4375 9.3125,-5.875 10.9375,-5.875 c 1.515625,0 2.28125,1.484375 2.28125,2.78125 0,1.40625 -0.953125,2.5625 -2.21875,2.5625 -0.828125,0 -1.46875,-0.609375 -1.78125,-0.90625 -0.359375,-0.390625 -0.6875,-0.828125 -1.5625,-1.96875 z m -0.984375,0.625 c -0.59375,1.03125 -1.65625,2.484375 -3.265625,2.484375 -1.53125,0 -2.296875,-1.5 -2.296875,-2.78125 0,-1.40625 0.953125,-2.578125 2.21875,-2.578125 0.828125,0 1.484375,0.609375 1.78125,0.90625 0.359375,0.390625 0.6875,0.828125 1.5625,1.96875 z m 0,0"
                 id="path24432" />
            </g>
          </g>
        </defs>
        <g
           fill="#000000"
           fill-opacity="1"
           id="g24444"
           transform="translate(-291.246,-60.5403)">
          <g
             transform="translate(290.465,66.884)"
             id="g24442">
            <path
               d="M 7.28125,-3.890625 C 6.515625,-4.859375 6.34375,-5.078125 5.890625,-5.4375 5.09375,-6.078125 4.28125,-6.34375 3.5625,-6.34375 c -1.6875,0 -2.78125,1.578125 -2.78125,3.265625 0,1.640625 1.0625,3.234375 2.71875,3.234375 1.65625,0 2.84375,-1.296875 3.546875,-2.453125 0.765625,0.984375 0.9375,1.1875 1.390625,1.546875 0.796875,0.65625 1.609375,0.90625 2.328125,0.90625 1.6875,0 2.78125,-1.578125 2.78125,-3.25 0,-1.65625 -1.0625,-3.25 -2.71875,-3.25 -1.640625,0 -2.84375,1.3125 -3.546875,2.453125 z m 0.375,0.484375 C 8.25,-4.4375 9.3125,-5.875 10.9375,-5.875 c 1.515625,0 2.28125,1.484375 2.28125,2.78125 0,1.40625 -0.953125,2.5625 -2.21875,2.5625 -0.828125,0 -1.46875,-0.609375 -1.78125,-0.90625 -0.359375,-0.390625 -0.6875,-0.828125 -1.5625,-1.96875 z m -0.984375,0.625 c -0.59375,1.03125 -1.65625,2.484375 -3.265625,2.484375 -1.53125,0 -2.296875,-1.5 -2.296875,-2.78125 0,-1.40625 0.953125,-2.578125 2.21875,-2.578125 0.828125,0 1.484375,0.609375 1.78125,0.90625 0.359375,0.390625 0.6875,0.828125 1.5625,1.96875 z m 0,0"
               id="path24440" />
          </g>
        </g>
      </g>
      <g
         transform="translate(238.2453,-3.5850743)"
         ns3:version="1.8.2"
         ns3:texconverter="pdflatex"
         ns3:pdfconverter="inkscape"
         ns3:text="$$\\infty$$"
         ns3:preamble="/home/buyolitsez/.config/inkscape/extensions/textext/default_packages.tex"
         ns3:scale="1.3"
         ns3:alignment="middle center"
         ns3:stroke-to-path="0"
         ns3:inkscapeversion="1.2.2"
         ns3:jacobian_sqrt="1.0"
         id="g24464">
        <defs
           id="defs24456">
          <g
             id="g24454">
            <g
               id="g24448" />
            <g
               id="g24452">
              <path
                 d="M 7.28125,-3.890625 C 6.515625,-4.859375 6.34375,-5.078125 5.890625,-5.4375 5.09375,-6.078125 4.28125,-6.34375 3.5625,-6.34375 c -1.6875,0 -2.78125,1.578125 -2.78125,3.265625 0,1.640625 1.0625,3.234375 2.71875,3.234375 1.65625,0 2.84375,-1.296875 3.546875,-2.453125 0.765625,0.984375 0.9375,1.1875 1.390625,1.546875 0.796875,0.65625 1.609375,0.90625 2.328125,0.90625 1.6875,0 2.78125,-1.578125 2.78125,-3.25 0,-1.65625 -1.0625,-3.25 -2.71875,-3.25 -1.640625,0 -2.84375,1.3125 -3.546875,2.453125 z m 0.375,0.484375 C 8.25,-4.4375 9.3125,-5.875 10.9375,-5.875 c 1.515625,0 2.28125,1.484375 2.28125,2.78125 0,1.40625 -0.953125,2.5625 -2.21875,2.5625 -0.828125,0 -1.46875,-0.609375 -1.78125,-0.90625 -0.359375,-0.390625 -0.6875,-0.828125 -1.5625,-1.96875 z m -0.984375,0.625 c -0.59375,1.03125 -1.65625,2.484375 -3.265625,2.484375 -1.53125,0 -2.296875,-1.5 -2.296875,-2.78125 0,-1.40625 0.953125,-2.578125 2.21875,-2.578125 0.828125,0 1.484375,0.609375 1.78125,0.90625 0.359375,0.390625 0.6875,0.828125 1.5625,1.96875 z m 0,0"
                 id="path24450" />
            </g>
          </g>
        </defs>
        <g
           fill="#000000"
           fill-opacity="1"
           id="g24462"
           transform="translate(-291.246,-60.5403)">
          <g
             transform="translate(290.465,66.884)"
             id="g24460">
            <path
               d="M 7.28125,-3.890625 C 6.515625,-4.859375 6.34375,-5.078125 5.890625,-5.4375 5.09375,-6.078125 4.28125,-6.34375 3.5625,-6.34375 c -1.6875,0 -2.78125,1.578125 -2.78125,3.265625 0,1.640625 1.0625,3.234375 2.71875,3.234375 1.65625,0 2.84375,-1.296875 3.546875,-2.453125 0.765625,0.984375 0.9375,1.1875 1.390625,1.546875 0.796875,0.65625 1.609375,0.90625 2.328125,0.90625 1.6875,0 2.78125,-1.578125 2.78125,-3.25 0,-1.65625 -1.0625,-3.25 -2.71875,-3.25 -1.640625,0 -2.84375,1.3125 -3.546875,2.453125 z m 0.375,0.484375 C 8.25,-4.4375 9.3125,-5.875 10.9375,-5.875 c 1.515625,0 2.28125,1.484375 2.28125,2.78125 0,1.40625 -0.953125,2.5625 -2.21875,2.5625 -0.828125,0 -1.46875,-0.609375 -1.78125,-0.90625 -0.359375,-0.390625 -0.6875,-0.828125 -1.5625,-1.96875 z m -0.984375,0.625 c -0.59375,1.03125 -1.65625,2.484375 -3.265625,2.484375 -1.53125,0 -2.296875,-1.5 -2.296875,-2.78125 0,-1.40625 0.953125,-2.578125 2.21875,-2.578125 0.828125,0 1.484375,0.609375 1.78125,0.90625 0.359375,0.390625 0.6875,0.828125 1.5625,1.96875 z m 0,0"
               id="path24458" />
          </g>
        </g>
      </g>
      <g
         transform="translate(267.48024,-3.5850743)"
         ns3:version="1.8.2"
         ns3:texconverter="pdflatex"
         ns3:pdfconverter="inkscape"
         ns3:text="$$\\infty$$"
         ns3:preamble="/home/buyolitsez/.config/inkscape/extensions/textext/default_packages.tex"
         ns3:scale="1.3"
         ns3:alignment="middle center"
         ns3:stroke-to-path="0"
         ns3:inkscapeversion="1.2.2"
         ns3:jacobian_sqrt="1.0"
         id="g24482">
        <defs
           id="defs24474">
          <g
             id="g24472">
            <g
               id="g24466" />
            <g
               id="g24470">
              <path
                 d="M 7.28125,-3.890625 C 6.515625,-4.859375 6.34375,-5.078125 5.890625,-5.4375 5.09375,-6.078125 4.28125,-6.34375 3.5625,-6.34375 c -1.6875,0 -2.78125,1.578125 -2.78125,3.265625 0,1.640625 1.0625,3.234375 2.71875,3.234375 1.65625,0 2.84375,-1.296875 3.546875,-2.453125 0.765625,0.984375 0.9375,1.1875 1.390625,1.546875 0.796875,0.65625 1.609375,0.90625 2.328125,0.90625 1.6875,0 2.78125,-1.578125 2.78125,-3.25 0,-1.65625 -1.0625,-3.25 -2.71875,-3.25 -1.640625,0 -2.84375,1.3125 -3.546875,2.453125 z m 0.375,0.484375 C 8.25,-4.4375 9.3125,-5.875 10.9375,-5.875 c 1.515625,0 2.28125,1.484375 2.28125,2.78125 0,1.40625 -0.953125,2.5625 -2.21875,2.5625 -0.828125,0 -1.46875,-0.609375 -1.78125,-0.90625 -0.359375,-0.390625 -0.6875,-0.828125 -1.5625,-1.96875 z m -0.984375,0.625 c -0.59375,1.03125 -1.65625,2.484375 -3.265625,2.484375 -1.53125,0 -2.296875,-1.5 -2.296875,-2.78125 0,-1.40625 0.953125,-2.578125 2.21875,-2.578125 0.828125,0 1.484375,0.609375 1.78125,0.90625 0.359375,0.390625 0.6875,0.828125 1.5625,1.96875 z m 0,0"
                 id="path24468" />
            </g>
          </g>
        </defs>
        <g
           fill="#000000"
           fill-opacity="1"
           id="g24480"
           transform="translate(-291.246,-60.5403)">
          <g
             transform="translate(290.465,66.884)"
             id="g24478">
            <path
               d="M 7.28125,-3.890625 C 6.515625,-4.859375 6.34375,-5.078125 5.890625,-5.4375 5.09375,-6.078125 4.28125,-6.34375 3.5625,-6.34375 c -1.6875,0 -2.78125,1.578125 -2.78125,3.265625 0,1.640625 1.0625,3.234375 2.71875,3.234375 1.65625,0 2.84375,-1.296875 3.546875,-2.453125 0.765625,0.984375 0.9375,1.1875 1.390625,1.546875 0.796875,0.65625 1.609375,0.90625 2.328125,0.90625 1.6875,0 2.78125,-1.578125 2.78125,-3.25 0,-1.65625 -1.0625,-3.25 -2.71875,-3.25 -1.640625,0 -2.84375,1.3125 -3.546875,2.453125 z m 0.375,0.484375 C 8.25,-4.4375 9.3125,-5.875 10.9375,-5.875 c 1.515625,0 2.28125,1.484375 2.28125,2.78125 0,1.40625 -0.953125,2.5625 -2.21875,2.5625 -0.828125,0 -1.46875,-0.609375 -1.78125,-0.90625 -0.359375,-0.390625 -0.6875,-0.828125 -1.5625,-1.96875 z m -0.984375,0.625 c -0.59375,1.03125 -1.65625,2.484375 -3.265625,2.484375 -1.53125,0 -2.296875,-1.5 -2.296875,-2.78125 0,-1.40625 0.953125,-2.578125 2.21875,-2.578125 0.828125,0 1.484375,0.609375 1.78125,0.90625 0.359375,0.390625 0.6875,0.828125 1.5625,1.96875 z m 0,0"
               id="path24476" />
          </g>
        </g>
      </g>
      <g
         transform="translate(292.09019,-3.5850743)"
         ns3:version="1.8.2"
         ns3:texconverter="pdflatex"
         ns3:pdfconverter="inkscape"
         ns3:text="$$\\infty$$"
         ns3:preamble="/home/buyolitsez/.config/inkscape/extensions/textext/default_packages.tex"
         ns3:scale="1.3"
         ns3:alignment="middle center"
         ns3:stroke-to-path="0"
         ns3:inkscapeversion="1.2.2"
         ns3:jacobian_sqrt="1.0"
         id="g24500">
        <defs
           id="defs24492">
          <g
             id="g24490">
            <g
               id="g24484" />
            <g
               id="g24488">
              <path
                 d="M 7.28125,-3.890625 C 6.515625,-4.859375 6.34375,-5.078125 5.890625,-5.4375 5.09375,-6.078125 4.28125,-6.34375 3.5625,-6.34375 c -1.6875,0 -2.78125,1.578125 -2.78125,3.265625 0,1.640625 1.0625,3.234375 2.71875,3.234375 1.65625,0 2.84375,-1.296875 3.546875,-2.453125 0.765625,0.984375 0.9375,1.1875 1.390625,1.546875 0.796875,0.65625 1.609375,0.90625 2.328125,0.90625 1.6875,0 2.78125,-1.578125 2.78125,-3.25 0,-1.65625 -1.0625,-3.25 -2.71875,-3.25 -1.640625,0 -2.84375,1.3125 -3.546875,2.453125 z m 0.375,0.484375 C 8.25,-4.4375 9.3125,-5.875 10.9375,-5.875 c 1.515625,0 2.28125,1.484375 2.28125,2.78125 0,1.40625 -0.953125,2.5625 -2.21875,2.5625 -0.828125,0 -1.46875,-0.609375 -1.78125,-0.90625 -0.359375,-0.390625 -0.6875,-0.828125 -1.5625,-1.96875 z m -0.984375,0.625 c -0.59375,1.03125 -1.65625,2.484375 -3.265625,2.484375 -1.53125,0 -2.296875,-1.5 -2.296875,-2.78125 0,-1.40625 0.953125,-2.578125 2.21875,-2.578125 0.828125,0 1.484375,0.609375 1.78125,0.90625 0.359375,0.390625 0.6875,0.828125 1.5625,1.96875 z m 0,0"
                 id="path24486" />
            </g>
          </g>
        </defs>
        <g
           fill="#000000"
           fill-opacity="1"
           id="g24498"
           transform="translate(-291.246,-60.5403)">
          <g
             transform="translate(290.465,66.884)"
             id="g24496">
            <path
               d="M 7.28125,-3.890625 C 6.515625,-4.859375 6.34375,-5.078125 5.890625,-5.4375 5.09375,-6.078125 4.28125,-6.34375 3.5625,-6.34375 c -1.6875,0 -2.78125,1.578125 -2.78125,3.265625 0,1.640625 1.0625,3.234375 2.71875,3.234375 1.65625,0 2.84375,-1.296875 3.546875,-2.453125 0.765625,0.984375 0.9375,1.1875 1.390625,1.546875 0.796875,0.65625 1.609375,0.90625 2.328125,0.90625 1.6875,0 2.78125,-1.578125 2.78125,-3.25 0,-1.65625 -1.0625,-3.25 -2.71875,-3.25 -1.640625,0 -2.84375,1.3125 -3.546875,2.453125 z m 0.375,0.484375 C 8.25,-4.4375 9.3125,-5.875 10.9375,-5.875 c 1.515625,0 2.28125,1.484375 2.28125,2.78125 0,1.40625 -0.953125,2.5625 -2.21875,2.5625 -0.828125,0 -1.46875,-0.609375 -1.78125,-0.90625 -0.359375,-0.390625 -0.6875,-0.828125 -1.5625,-1.96875 z m -0.984375,0.625 c -0.59375,1.03125 -1.65625,2.484375 -3.265625,2.484375 -1.53125,0 -2.296875,-1.5 -2.296875,-2.78125 0,-1.40625 0.953125,-2.578125 2.21875,-2.578125 0.828125,0 1.484375,0.609375 1.78125,0.90625 0.359375,0.390625 0.6875,0.828125 1.5625,1.96875 z m 0,0"
               id="path24494" />
          </g>
        </g>
      </g>
      <g
         transform="translate(340.23702,-3.5850743)"
         ns3:version="1.8.2"
         ns3:texconverter="pdflatex"
         ns3:pdfconverter="inkscape"
         ns3:text="$$\\infty$$"
         ns3:preamble="/home/buyolitsez/.config/inkscape/extensions/textext/default_packages.tex"
         ns3:scale="1.3"
         ns3:alignment="middle center"
         ns3:stroke-to-path="0"
         ns3:inkscapeversion="1.2.2"
         ns3:jacobian_sqrt="1.0"
         id="g24518">
        <defs
           id="defs24510">
          <g
             id="g24508">
            <g
               id="g24502" />
            <g
               id="g24506">
              <path
                 d="M 7.28125,-3.890625 C 6.515625,-4.859375 6.34375,-5.078125 5.890625,-5.4375 5.09375,-6.078125 4.28125,-6.34375 3.5625,-6.34375 c -1.6875,0 -2.78125,1.578125 -2.78125,3.265625 0,1.640625 1.0625,3.234375 2.71875,3.234375 1.65625,0 2.84375,-1.296875 3.546875,-2.453125 0.765625,0.984375 0.9375,1.1875 1.390625,1.546875 0.796875,0.65625 1.609375,0.90625 2.328125,0.90625 1.6875,0 2.78125,-1.578125 2.78125,-3.25 0,-1.65625 -1.0625,-3.25 -2.71875,-3.25 -1.640625,0 -2.84375,1.3125 -3.546875,2.453125 z m 0.375,0.484375 C 8.25,-4.4375 9.3125,-5.875 10.9375,-5.875 c 1.515625,0 2.28125,1.484375 2.28125,2.78125 0,1.40625 -0.953125,2.5625 -2.21875,2.5625 -0.828125,0 -1.46875,-0.609375 -1.78125,-0.90625 -0.359375,-0.390625 -0.6875,-0.828125 -1.5625,-1.96875 z m -0.984375,0.625 c -0.59375,1.03125 -1.65625,2.484375 -3.265625,2.484375 -1.53125,0 -2.296875,-1.5 -2.296875,-2.78125 0,-1.40625 0.953125,-2.578125 2.21875,-2.578125 0.828125,0 1.484375,0.609375 1.78125,0.90625 0.359375,0.390625 0.6875,0.828125 1.5625,1.96875 z m 0,0"
                 id="path24504" />
            </g>
          </g>
        </defs>
        <g
           fill="#000000"
           fill-opacity="1"
           id="g24516"
           transform="translate(-291.246,-60.5403)">
          <g
             transform="translate(290.465,66.884)"
             id="g24514">
            <path
               d="M 7.28125,-3.890625 C 6.515625,-4.859375 6.34375,-5.078125 5.890625,-5.4375 5.09375,-6.078125 4.28125,-6.34375 3.5625,-6.34375 c -1.6875,0 -2.78125,1.578125 -2.78125,3.265625 0,1.640625 1.0625,3.234375 2.71875,3.234375 1.65625,0 2.84375,-1.296875 3.546875,-2.453125 0.765625,0.984375 0.9375,1.1875 1.390625,1.546875 0.796875,0.65625 1.609375,0.90625 2.328125,0.90625 1.6875,0 2.78125,-1.578125 2.78125,-3.25 0,-1.65625 -1.0625,-3.25 -2.71875,-3.25 -1.640625,0 -2.84375,1.3125 -3.546875,2.453125 z m 0.375,0.484375 C 8.25,-4.4375 9.3125,-5.875 10.9375,-5.875 c 1.515625,0 2.28125,1.484375 2.28125,2.78125 0,1.40625 -0.953125,2.5625 -2.21875,2.5625 -0.828125,0 -1.46875,-0.609375 -1.78125,-0.90625 -0.359375,-0.390625 -0.6875,-0.828125 -1.5625,-1.96875 z m -0.984375,0.625 c -0.59375,1.03125 -1.65625,2.484375 -3.265625,2.484375 -1.53125,0 -2.296875,-1.5 -2.296875,-2.78125 0,-1.40625 0.953125,-2.578125 2.21875,-2.578125 0.828125,0 1.484375,0.609375 1.78125,0.90625 0.359375,0.390625 0.6875,0.828125 1.5625,1.96875 z m 0,0"
               id="path24512" />
          </g>
        </g>
      </g>
      <g
         transform="translate(363.50564,-3.5850743)"
         ns3:version="1.8.2"
         ns3:texconverter="pdflatex"
         ns3:pdfconverter="inkscape"
         ns3:text="$$\\infty$$"
         ns3:preamble="/home/buyolitsez/.config/inkscape/extensions/textext/default_packages.tex"
         ns3:scale="1.3"
         ns3:alignment="middle center"
         ns3:stroke-to-path="0"
         ns3:inkscapeversion="1.2.2"
         ns3:jacobian_sqrt="1.0"
         id="g24536">
        <defs
           id="defs24528">
          <g
             id="g24526">
            <g
               id="g24520" />
            <g
               id="g24524">
              <path
                 d="M 7.28125,-3.890625 C 6.515625,-4.859375 6.34375,-5.078125 5.890625,-5.4375 5.09375,-6.078125 4.28125,-6.34375 3.5625,-6.34375 c -1.6875,0 -2.78125,1.578125 -2.78125,3.265625 0,1.640625 1.0625,3.234375 2.71875,3.234375 1.65625,0 2.84375,-1.296875 3.546875,-2.453125 0.765625,0.984375 0.9375,1.1875 1.390625,1.546875 0.796875,0.65625 1.609375,0.90625 2.328125,0.90625 1.6875,0 2.78125,-1.578125 2.78125,-3.25 0,-1.65625 -1.0625,-3.25 -2.71875,-3.25 -1.640625,0 -2.84375,1.3125 -3.546875,2.453125 z m 0.375,0.484375 C 8.25,-4.4375 9.3125,-5.875 10.9375,-5.875 c 1.515625,0 2.28125,1.484375 2.28125,2.78125 0,1.40625 -0.953125,2.5625 -2.21875,2.5625 -0.828125,0 -1.46875,-0.609375 -1.78125,-0.90625 -0.359375,-0.390625 -0.6875,-0.828125 -1.5625,-1.96875 z m -0.984375,0.625 c -0.59375,1.03125 -1.65625,2.484375 -3.265625,2.484375 -1.53125,0 -2.296875,-1.5 -2.296875,-2.78125 0,-1.40625 0.953125,-2.578125 2.21875,-2.578125 0.828125,0 1.484375,0.609375 1.78125,0.90625 0.359375,0.390625 0.6875,0.828125 1.5625,1.96875 z m 0,0"
                 id="path24522" />
            </g>
          </g>
        </defs>
        <g
           fill="#000000"
           fill-opacity="1"
           id="g24534"
           transform="translate(-291.246,-60.5403)">
          <g
             transform="translate(290.465,66.884)"
             id="g24532">
            <path
               d="M 7.28125,-3.890625 C 6.515625,-4.859375 6.34375,-5.078125 5.890625,-5.4375 5.09375,-6.078125 4.28125,-6.34375 3.5625,-6.34375 c -1.6875,0 -2.78125,1.578125 -2.78125,3.265625 0,1.640625 1.0625,3.234375 2.71875,3.234375 1.65625,0 2.84375,-1.296875 3.546875,-2.453125 0.765625,0.984375 0.9375,1.1875 1.390625,1.546875 0.796875,0.65625 1.609375,0.90625 2.328125,0.90625 1.6875,0 2.78125,-1.578125 2.78125,-3.25 0,-1.65625 -1.0625,-3.25 -2.71875,-3.25 -1.640625,0 -2.84375,1.3125 -3.546875,2.453125 z m 0.375,0.484375 C 8.25,-4.4375 9.3125,-5.875 10.9375,-5.875 c 1.515625,0 2.28125,1.484375 2.28125,2.78125 0,1.40625 -0.953125,2.5625 -2.21875,2.5625 -0.828125,0 -1.46875,-0.609375 -1.78125,-0.90625 -0.359375,-0.390625 -0.6875,-0.828125 -1.5625,-1.96875 z m -0.984375,0.625 c -0.59375,1.03125 -1.65625,2.484375 -3.265625,2.484375 -1.53125,0 -2.296875,-1.5 -2.296875,-2.78125 0,-1.40625 0.953125,-2.578125 2.21875,-2.578125 0.828125,0 1.484375,0.609375 1.78125,0.90625 0.359375,0.390625 0.6875,0.828125 1.5625,1.96875 z m 0,0"
               id="path24530" />
          </g>
        </g>
      </g>
      <g
         transform="translate(381.66845,-3.5850743)"
         ns3:version="1.8.2"
         ns3:texconverter="pdflatex"
         ns3:pdfconverter="inkscape"
         ns3:text="$$\\infty$$"
         ns3:preamble="/home/buyolitsez/.config/inkscape/extensions/textext/default_packages.tex"
         ns3:scale="1.3"
         ns3:alignment="middle center"
         ns3:stroke-to-path="0"
         ns3:inkscapeversion="1.2.2"
         ns3:jacobian_sqrt="1.0"
         id="g24554">
        <defs
           id="defs24546">
          <g
             id="g24544">
            <g
               id="g24538" />
            <g
               id="g24542">
              <path
                 d="M 7.28125,-3.890625 C 6.515625,-4.859375 6.34375,-5.078125 5.890625,-5.4375 5.09375,-6.078125 4.28125,-6.34375 3.5625,-6.34375 c -1.6875,0 -2.78125,1.578125 -2.78125,3.265625 0,1.640625 1.0625,3.234375 2.71875,3.234375 1.65625,0 2.84375,-1.296875 3.546875,-2.453125 0.765625,0.984375 0.9375,1.1875 1.390625,1.546875 0.796875,0.65625 1.609375,0.90625 2.328125,0.90625 1.6875,0 2.78125,-1.578125 2.78125,-3.25 0,-1.65625 -1.0625,-3.25 -2.71875,-3.25 -1.640625,0 -2.84375,1.3125 -3.546875,2.453125 z m 0.375,0.484375 C 8.25,-4.4375 9.3125,-5.875 10.9375,-5.875 c 1.515625,0 2.28125,1.484375 2.28125,2.78125 0,1.40625 -0.953125,2.5625 -2.21875,2.5625 -0.828125,0 -1.46875,-0.609375 -1.78125,-0.90625 -0.359375,-0.390625 -0.6875,-0.828125 -1.5625,-1.96875 z m -0.984375,0.625 c -0.59375,1.03125 -1.65625,2.484375 -3.265625,2.484375 -1.53125,0 -2.296875,-1.5 -2.296875,-2.78125 0,-1.40625 0.953125,-2.578125 2.21875,-2.578125 0.828125,0 1.484375,0.609375 1.78125,0.90625 0.359375,0.390625 0.6875,0.828125 1.5625,1.96875 z m 0,0"
                 id="path24540" />
            </g>
          </g>
        </defs>
        <g
           fill="#000000"
           fill-opacity="1"
           id="g24552"
           transform="translate(-289.20836,-60.5403)">
          <g
             transform="translate(290.465,66.884)"
             id="g24550">
            <path
               d="M 7.28125,-3.890625 C 6.515625,-4.859375 6.34375,-5.078125 5.890625,-5.4375 5.09375,-6.078125 4.28125,-6.34375 3.5625,-6.34375 c -1.6875,0 -2.78125,1.578125 -2.78125,3.265625 0,1.640625 1.0625,3.234375 2.71875,3.234375 1.65625,0 2.84375,-1.296875 3.546875,-2.453125 0.765625,0.984375 0.9375,1.1875 1.390625,1.546875 0.796875,0.65625 1.609375,0.90625 2.328125,0.90625 1.6875,0 2.78125,-1.578125 2.78125,-3.25 0,-1.65625 -1.0625,-3.25 -2.71875,-3.25 -1.640625,0 -2.84375,1.3125 -3.546875,2.453125 z m 0.375,0.484375 C 8.25,-4.4375 9.3125,-5.875 10.9375,-5.875 c 1.515625,0 2.28125,1.484375 2.28125,2.78125 0,1.40625 -0.953125,2.5625 -2.21875,2.5625 -0.828125,0 -1.46875,-0.609375 -1.78125,-0.90625 -0.359375,-0.390625 -0.6875,-0.828125 -1.5625,-1.96875 z m -0.984375,0.625 c -0.59375,1.03125 -1.65625,2.484375 -3.265625,2.484375 -1.53125,0 -2.296875,-1.5 -2.296875,-2.78125 0,-1.40625 0.953125,-2.578125 2.21875,-2.578125 0.828125,0 1.484375,0.609375 1.78125,0.90625 0.359375,0.390625 0.6875,0.828125 1.5625,1.96875 z m 0,0"
               id="path24548" />
          </g>
        </g>
      </g>
      <g
         transform="translate(405.78291,-3.5850743)"
         ns3:version="1.8.2"
         ns3:texconverter="pdflatex"
         ns3:pdfconverter="inkscape"
         ns3:text="$$\\infty$$"
         ns3:preamble="/home/buyolitsez/.config/inkscape/extensions/textext/default_packages.tex"
         ns3:scale="1.3"
         ns3:alignment="middle center"
         ns3:stroke-to-path="0"
         ns3:inkscapeversion="1.2.2"
         ns3:jacobian_sqrt="1.0"
         id="g24572">
        <defs
           id="defs24564">
          <g
             id="g24562">
            <g
               id="g24556" />
            <g
               id="g24560">
              <path
                 d="M 7.28125,-3.890625 C 6.515625,-4.859375 6.34375,-5.078125 5.890625,-5.4375 5.09375,-6.078125 4.28125,-6.34375 3.5625,-6.34375 c -1.6875,0 -2.78125,1.578125 -2.78125,3.265625 0,1.640625 1.0625,3.234375 2.71875,3.234375 1.65625,0 2.84375,-1.296875 3.546875,-2.453125 0.765625,0.984375 0.9375,1.1875 1.390625,1.546875 0.796875,0.65625 1.609375,0.90625 2.328125,0.90625 1.6875,0 2.78125,-1.578125 2.78125,-3.25 0,-1.65625 -1.0625,-3.25 -2.71875,-3.25 -1.640625,0 -2.84375,1.3125 -3.546875,2.453125 z m 0.375,0.484375 C 8.25,-4.4375 9.3125,-5.875 10.9375,-5.875 c 1.515625,0 2.28125,1.484375 2.28125,2.78125 0,1.40625 -0.953125,2.5625 -2.21875,2.5625 -0.828125,0 -1.46875,-0.609375 -1.78125,-0.90625 -0.359375,-0.390625 -0.6875,-0.828125 -1.5625,-1.96875 z m -0.984375,0.625 c -0.59375,1.03125 -1.65625,2.484375 -3.265625,2.484375 -1.53125,0 -2.296875,-1.5 -2.296875,-2.78125 0,-1.40625 0.953125,-2.578125 2.21875,-2.578125 0.828125,0 1.484375,0.609375 1.78125,0.90625 0.359375,0.390625 0.6875,0.828125 1.5625,1.96875 z m 0,0"
                 id="path24558" />
            </g>
          </g>
        </defs>
        <g
           fill="#000000"
           fill-opacity="1"
           id="g24570"
           transform="translate(-291.246,-60.5403)">
          <g
             transform="translate(290.465,66.884)"
             id="g24568">
            <path
               d="M 7.28125,-3.890625 C 6.515625,-4.859375 6.34375,-5.078125 5.890625,-5.4375 5.09375,-6.078125 4.28125,-6.34375 3.5625,-6.34375 c -1.6875,0 -2.78125,1.578125 -2.78125,3.265625 0,1.640625 1.0625,3.234375 2.71875,3.234375 1.65625,0 2.84375,-1.296875 3.546875,-2.453125 0.765625,0.984375 0.9375,1.1875 1.390625,1.546875 0.796875,0.65625 1.609375,0.90625 2.328125,0.90625 1.6875,0 2.78125,-1.578125 2.78125,-3.25 0,-1.65625 -1.0625,-3.25 -2.71875,-3.25 -1.640625,0 -2.84375,1.3125 -3.546875,2.453125 z m 0.375,0.484375 C 8.25,-4.4375 9.3125,-5.875 10.9375,-5.875 c 1.515625,0 2.28125,1.484375 2.28125,2.78125 0,1.40625 -0.953125,2.5625 -2.21875,2.5625 -0.828125,0 -1.46875,-0.609375 -1.78125,-0.90625 -0.359375,-0.390625 -0.6875,-0.828125 -1.5625,-1.96875 z m -0.984375,0.625 c -0.59375,1.03125 -1.65625,2.484375 -3.265625,2.484375 -1.53125,0 -2.296875,-1.5 -2.296875,-2.78125 0,-1.40625 0.953125,-2.578125 2.21875,-2.578125 0.828125,0 1.484375,0.609375 1.78125,0.90625 0.359375,0.390625 0.6875,0.828125 1.5625,1.96875 z m 0,0"
               id="path24566" />
          </g>
        </g>
      </g>
    </g>
  </g>
</svg>
